<mxfile host="app.diagrams.net" modified="2024-05-26T09:29:53.890Z" agent="Mozilla/5.0 (Windows NT 10.0; Win64; x64) AppleWebKit/537.36 (KHTML, like Gecko) Chrome/125.0.0.0 Safari/537.36" etag="U9SK_R85PTZ1YI35HL0B" version="24.4.8" type="github">
  <diagram name="Seite-1" id="W82PlnvRWBCRj4MligmQ">
    <mxGraphModel dx="1071" dy="576" grid="1" gridSize="10" guides="1" tooltips="1" connect="1" arrows="1" fold="1" page="1" pageScale="1" pageWidth="827" pageHeight="1169" math="1" shadow="0">
      <root>
        <mxCell id="0" />
        <mxCell id="1" parent="0" />
        <mxCell id="ZjJuexm5JRDCjWlvDGG2-36" value="2 ETH" style="edgeStyle=orthogonalEdgeStyle;rounded=0;orthogonalLoop=1;jettySize=auto;html=1;entryX=0;entryY=0.5;entryDx=0;entryDy=0;exitX=1;exitY=0.5;exitDx=0;exitDy=0;fontSize=17;fontFamily=Computer Modern;fontSource=https%3A%2F%2Ffonts.googleapis.com%2Fcss%3Ffamily%3DComputer%2BModern;" parent="1" source="KJkhIbnz85qWbtbBBVFo-1" target="ZjJuexm5JRDCjWlvDGG2-37" edge="1">
          <mxGeometry relative="1" as="geometry">
            <mxPoint x="210" y="140" as="targetPoint" />
            <mxPoint x="110" y="140" as="sourcePoint" />
          </mxGeometry>
        </mxCell>
        <mxCell id="ZjJuexm5JRDCjWlvDGG2-53" value="6.15 ETH" style="edgeStyle=orthogonalEdgeStyle;rounded=0;orthogonalLoop=1;jettySize=auto;html=1;entryX=0;entryY=0.5;entryDx=0;entryDy=0;fontFamily=Computer Modern;fontSource=https%3A%2F%2Ffonts.googleapis.com%2Fcss%3Ffamily%3DComputer%2BModern;fontSize=17;" parent="1" source="ZjJuexm5JRDCjWlvDGG2-37" target="KJkhIbnz85qWbtbBBVFo-2" edge="1">
          <mxGeometry relative="1" as="geometry">
            <mxPoint x="375" y="140" as="targetPoint" />
          </mxGeometry>
        </mxCell>
        <mxCell id="ZjJuexm5JRDCjWlvDGG2-37" value="&lt;span style=&quot;font-size: 16px;&quot;&gt;Rug pull&amp;nbsp;&lt;/span&gt;&lt;div&gt;&lt;span style=&quot;font-size: 16px;&quot;&gt;&quot;DIO INU&quot;&amp;nbsp;&lt;/span&gt;&lt;/div&gt;" style="rounded=0;whiteSpace=wrap;html=1;fontFamily=Computer Modern;fontSize=16;fontStyle=0;fontSource=https%3A%2F%2Ffonts.googleapis.com%2Fcss%3Ffamily%3DComputer%2BModern;" parent="1" vertex="1">
          <mxGeometry x="195" y="110" width="140" height="60" as="geometry" />
        </mxCell>
        <mxCell id="ZjJuexm5JRDCjWlvDGG2-44" value="3.35 ETH" style="edgeStyle=orthogonalEdgeStyle;rounded=0;orthogonalLoop=1;jettySize=auto;html=1;entryX=0;entryY=0.5;entryDx=0;entryDy=0;exitX=1;exitY=0.5;exitDx=0;exitDy=0;fontFamily=Computer Modern;fontSource=https%3A%2F%2Ffonts.googleapis.com%2Fcss%3Ffamily%3DComputer%2BModern;fontSize=17;" parent="1" source="KJkhIbnz85qWbtbBBVFo-2" target="GaLtBS_WFOr5p7Ct3-l7-18" edge="1">
          <mxGeometry x="-0.0091" relative="1" as="geometry">
            <mxPoint x="489" y="140" as="targetPoint" />
            <mxPoint as="offset" />
            <mxPoint x="455" y="140" as="sourcePoint" />
          </mxGeometry>
        </mxCell>
        <mxCell id="GaLtBS_WFOr5p7Ct3-l7-1" value="3.31 ETH" style="edgeStyle=orthogonalEdgeStyle;rounded=0;orthogonalLoop=1;jettySize=auto;html=1;entryX=0;entryY=0.5;entryDx=0;entryDy=0;fontFamily=Computer Modern;fontSource=https%3A%2F%2Ffonts.googleapis.com%2Fcss%3Ffamily%3DComputer%2BModern;fontSize=17;exitX=1;exitY=0.5;exitDx=0;exitDy=0;" parent="1" target="KJkhIbnz85qWbtbBBVFo-4" edge="1" source="GaLtBS_WFOr5p7Ct3-l7-18">
          <mxGeometry x="0.002" relative="1" as="geometry">
            <mxPoint x="625" y="141" as="sourcePoint" />
            <mxPoint as="offset" />
            <mxPoint x="705" y="140" as="targetPoint" />
          </mxGeometry>
        </mxCell>
        <mxCell id="ZjJuexm5JRDCjWlvDGG2-47" value="4 ETH" style="edgeStyle=orthogonalEdgeStyle;rounded=0;orthogonalLoop=1;jettySize=auto;html=1;exitX=1;exitY=0.5;exitDx=0;exitDy=0;entryX=0;entryY=0.5;entryDx=0;entryDy=0;fontFamily=Computer Modern;fontSource=https%3A%2F%2Ffonts.googleapis.com%2Fcss%3Ffamily%3DComputer%2BModern;fontSize=17;" parent="1" source="KJkhIbnz85qWbtbBBVFo-3" edge="1" target="KJkhIbnz85qWbtbBBVFo-10">
          <mxGeometry relative="1" as="geometry">
            <mxPoint x="187" y="250" as="targetPoint" />
            <mxPoint x="110" y="250" as="sourcePoint" />
          </mxGeometry>
        </mxCell>
        <mxCell id="ZjJuexm5JRDCjWlvDGG2-49" value="3.96 ETH" style="edgeStyle=orthogonalEdgeStyle;rounded=0;orthogonalLoop=1;jettySize=auto;html=1;entryX=0;entryY=0.5;entryDx=0;entryDy=0;exitX=1;exitY=0.5;exitDx=0;exitDy=0;fontFamily=Computer Modern;fontSource=https%3A%2F%2Ffonts.googleapis.com%2Fcss%3Ffamily%3DComputer%2BModern;fontSize=17;" parent="1" source="KJkhIbnz85qWbtbBBVFo-10" target="KJkhIbnz85qWbtbBBVFo-5" edge="1">
          <mxGeometry relative="1" as="geometry">
            <mxPoint x="315" y="250" as="sourcePoint" />
            <mxPoint x="375" y="250" as="targetPoint" />
          </mxGeometry>
        </mxCell>
        <mxCell id="ZjJuexm5JRDCjWlvDGG2-64" value="2 ETH" style="edgeStyle=orthogonalEdgeStyle;rounded=0;orthogonalLoop=1;jettySize=auto;html=1;entryX=0;entryY=0.5;entryDx=0;entryDy=0;" parent="1" source="ZjJuexm5JRDCjWlvDGG2-65" target="ZjJuexm5JRDCjWlvDGG2-67" edge="1">
          <mxGeometry relative="1" as="geometry">
            <mxPoint x="290" y="645" as="targetPoint" />
          </mxGeometry>
        </mxCell>
        <mxCell id="ZjJuexm5JRDCjWlvDGG2-88" value="" style="edgeStyle=orthogonalEdgeStyle;rounded=0;orthogonalLoop=1;jettySize=auto;html=1;" parent="1" source="ZjJuexm5JRDCjWlvDGG2-65" target="ZjJuexm5JRDCjWlvDGG2-71" edge="1">
          <mxGeometry relative="1" as="geometry" />
        </mxCell>
        <mxCell id="ZjJuexm5JRDCjWlvDGG2-65" value="au1" style="ellipse;whiteSpace=wrap;html=1;aspect=fixed;" parent="1" vertex="1">
          <mxGeometry x="110" y="605" width="80" height="80" as="geometry" />
        </mxCell>
        <mxCell id="ZjJuexm5JRDCjWlvDGG2-87" style="edgeStyle=orthogonalEdgeStyle;rounded=0;orthogonalLoop=1;jettySize=auto;html=1;entryX=0.5;entryY=0;entryDx=0;entryDy=0;" parent="1" source="ZjJuexm5JRDCjWlvDGG2-67" target="ZjJuexm5JRDCjWlvDGG2-65" edge="1">
          <mxGeometry relative="1" as="geometry">
            <Array as="points">
              <mxPoint x="305" y="585" />
              <mxPoint x="150" y="585" />
            </Array>
          </mxGeometry>
        </mxCell>
        <mxCell id="ZjJuexm5JRDCjWlvDGG2-67" value="Rug pull with token &quot;DIO INU&quot;&amp;nbsp;" style="rounded=0;whiteSpace=wrap;html=1;" parent="1" vertex="1">
          <mxGeometry x="250" y="615" width="120" height="60" as="geometry" />
        </mxCell>
        <mxCell id="ZjJuexm5JRDCjWlvDGG2-89" style="edgeStyle=orthogonalEdgeStyle;rounded=0;orthogonalLoop=1;jettySize=auto;html=1;entryX=0;entryY=0.5;entryDx=0;entryDy=0;" parent="1" source="ZjJuexm5JRDCjWlvDGG2-71" target="ZjJuexm5JRDCjWlvDGG2-72" edge="1">
          <mxGeometry relative="1" as="geometry" />
        </mxCell>
        <mxCell id="ZjJuexm5JRDCjWlvDGG2-71" value="Evonax Coin-swap" style="rounded=0;whiteSpace=wrap;html=1;" parent="1" vertex="1">
          <mxGeometry x="90" y="735" width="120" height="60" as="geometry" />
        </mxCell>
        <mxCell id="ZjJuexm5JRDCjWlvDGG2-95" style="edgeStyle=orthogonalEdgeStyle;rounded=0;orthogonalLoop=1;jettySize=auto;html=1;entryX=0;entryY=0.5;entryDx=0;entryDy=0;dashed=1;dashPattern=8 8;" parent="1" source="ZjJuexm5JRDCjWlvDGG2-72" target="ZjJuexm5JRDCjWlvDGG2-74" edge="1">
          <mxGeometry relative="1" as="geometry" />
        </mxCell>
        <mxCell id="ZjJuexm5JRDCjWlvDGG2-72" value="FTXdeposit" style="ellipse;whiteSpace=wrap;html=1;aspect=fixed;" parent="1" vertex="1">
          <mxGeometry x="325" y="725" width="80" height="80" as="geometry" />
        </mxCell>
        <mxCell id="ZjJuexm5JRDCjWlvDGG2-73" style="edgeStyle=orthogonalEdgeStyle;rounded=0;orthogonalLoop=1;jettySize=auto;html=1;exitX=1;exitY=0.5;exitDx=0;exitDy=0;entryX=0;entryY=0.5;entryDx=0;entryDy=0;" parent="1" source="ZjJuexm5JRDCjWlvDGG2-74" target="ZjJuexm5JRDCjWlvDGG2-76" edge="1">
          <mxGeometry relative="1" as="geometry" />
        </mxCell>
        <mxCell id="ZjJuexm5JRDCjWlvDGG2-74" value="FTXhot" style="ellipse;whiteSpace=wrap;html=1;aspect=fixed;" parent="1" vertex="1">
          <mxGeometry x="455" y="725" width="80" height="80" as="geometry" />
        </mxCell>
        <mxCell id="ZjJuexm5JRDCjWlvDGG2-90" style="edgeStyle=orthogonalEdgeStyle;rounded=0;orthogonalLoop=1;jettySize=auto;html=1;entryX=0.5;entryY=0;entryDx=0;entryDy=0;" parent="1" source="ZjJuexm5JRDCjWlvDGG2-76" target="ZjJuexm5JRDCjWlvDGG2-78" edge="1">
          <mxGeometry relative="1" as="geometry" />
        </mxCell>
        <mxCell id="ZjJuexm5JRDCjWlvDGG2-76" value="Evonax Coin-swap&lt;div&gt;ETH&lt;/div&gt;" style="rounded=0;whiteSpace=wrap;html=1;" parent="1" vertex="1">
          <mxGeometry x="585" y="735" width="120" height="60" as="geometry" />
        </mxCell>
        <mxCell id="ZjJuexm5JRDCjWlvDGG2-91" style="edgeStyle=orthogonalEdgeStyle;rounded=0;orthogonalLoop=1;jettySize=auto;html=1;" parent="1" source="ZjJuexm5JRDCjWlvDGG2-78" target="ZjJuexm5JRDCjWlvDGG2-82" edge="1">
          <mxGeometry relative="1" as="geometry" />
        </mxCell>
        <mxCell id="ZjJuexm5JRDCjWlvDGG2-93" value="&lt;span style=&quot;color: rgb(0, 0, 0); font-family: Helvetica; font-size: 11px; font-style: normal; font-variant-ligatures: normal; font-variant-caps: normal; font-weight: 400; letter-spacing: normal; orphans: 2; text-align: center; text-indent: 0px; text-transform: none; widows: 2; word-spacing: 0px; -webkit-text-stroke-width: 0px; white-space: nowrap; background-color: rgb(255, 255, 255); text-decoration-thickness: initial; text-decoration-style: initial; text-decoration-color: initial; display: inline !important; float: none;&quot;&gt;5.58 ETH&lt;/span&gt;" style="edgeStyle=orthogonalEdgeStyle;rounded=0;orthogonalLoop=1;jettySize=auto;html=1;entryX=1;entryY=0.5;entryDx=0;entryDy=0;exitX=1;exitY=0.5;exitDx=0;exitDy=0;" parent="1" source="ZjJuexm5JRDCjWlvDGG2-78" target="ZjJuexm5JRDCjWlvDGG2-85" edge="1">
          <mxGeometry relative="1" as="geometry">
            <mxPoint x="755" y="1034.9999999999998" as="targetPoint" />
          </mxGeometry>
        </mxCell>
        <mxCell id="ZjJuexm5JRDCjWlvDGG2-78" value="au2" style="ellipse;whiteSpace=wrap;html=1;aspect=fixed;" parent="1" vertex="1">
          <mxGeometry x="605" y="835" width="80" height="80" as="geometry" />
        </mxCell>
        <mxCell id="ZjJuexm5JRDCjWlvDGG2-92" style="edgeStyle=orthogonalEdgeStyle;rounded=0;orthogonalLoop=1;jettySize=auto;html=1;entryX=0.5;entryY=1;entryDx=0;entryDy=0;" parent="1" source="ZjJuexm5JRDCjWlvDGG2-82" target="ZjJuexm5JRDCjWlvDGG2-78" edge="1">
          <mxGeometry relative="1" as="geometry">
            <mxPoint x="478.9999999999998" y="974.9999999999998" as="targetPoint" />
            <Array as="points">
              <mxPoint x="475" y="935" />
              <mxPoint x="645" y="935" />
            </Array>
          </mxGeometry>
        </mxCell>
        <mxCell id="ZjJuexm5JRDCjWlvDGG2-82" value="Rug pull with token &quot;MADARA INU&quot;&amp;nbsp;" style="rounded=0;whiteSpace=wrap;html=1;" parent="1" vertex="1">
          <mxGeometry x="419" y="845" width="120" height="60" as="geometry" />
        </mxCell>
        <mxCell id="ZjJuexm5JRDCjWlvDGG2-94" value="&lt;span style=&quot;color: rgb(0, 0, 0); font-family: Helvetica; font-size: 11px; font-style: normal; font-variant-ligatures: normal; font-variant-caps: normal; font-weight: 400; letter-spacing: normal; orphans: 2; text-align: center; text-indent: 0px; text-transform: none; widows: 2; word-spacing: 0px; -webkit-text-stroke-width: 0px; white-space: nowrap; background-color: rgb(255, 255, 255); text-decoration-thickness: initial; text-decoration-style: initial; text-decoration-color: initial; display: inline !important; float: none;&quot;&gt;5.58 ETH&lt;/span&gt;" style="edgeStyle=orthogonalEdgeStyle;rounded=0;orthogonalLoop=1;jettySize=auto;html=1;entryX=0.5;entryY=1;entryDx=0;entryDy=0;" parent="1" source="ZjJuexm5JRDCjWlvDGG2-85" target="ZjJuexm5JRDCjWlvDGG2-72" edge="1">
          <mxGeometry relative="1" as="geometry" />
        </mxCell>
        <mxCell id="ZjJuexm5JRDCjWlvDGG2-85" value="Evonax Coin-swap&lt;div&gt;ETH&lt;/div&gt;" style="rounded=0;whiteSpace=wrap;html=1;" parent="1" vertex="1">
          <mxGeometry x="595" y="985" width="120" height="60" as="geometry" />
        </mxCell>
        <mxCell id="o3WEUzkVEZmSLn_VWQB0-1" value="2 ETH" style="edgeStyle=orthogonalEdgeStyle;rounded=0;orthogonalLoop=1;jettySize=auto;html=1;entryX=0;entryY=0.5;entryDx=0;entryDy=0;" parent="1" source="o3WEUzkVEZmSLn_VWQB0-3" target="o3WEUzkVEZmSLn_VWQB0-5" edge="1">
          <mxGeometry relative="1" as="geometry">
            <mxPoint x="1110" y="670" as="targetPoint" />
          </mxGeometry>
        </mxCell>
        <mxCell id="o3WEUzkVEZmSLn_VWQB0-2" value="" style="edgeStyle=orthogonalEdgeStyle;rounded=0;orthogonalLoop=1;jettySize=auto;html=1;" parent="1" source="o3WEUzkVEZmSLn_VWQB0-3" target="o3WEUzkVEZmSLn_VWQB0-7" edge="1">
          <mxGeometry relative="1" as="geometry" />
        </mxCell>
        <mxCell id="o3WEUzkVEZmSLn_VWQB0-3" value="au1" style="ellipse;whiteSpace=wrap;html=1;aspect=fixed;" parent="1" vertex="1">
          <mxGeometry x="930" y="630" width="80" height="80" as="geometry" />
        </mxCell>
        <mxCell id="o3WEUzkVEZmSLn_VWQB0-5" value="Rug pull with token &quot;DIO INU&quot;&amp;nbsp;" style="rounded=0;whiteSpace=wrap;html=1;" parent="1" vertex="1">
          <mxGeometry x="1070" y="640" width="120" height="60" as="geometry" />
        </mxCell>
        <mxCell id="o3WEUzkVEZmSLn_VWQB0-6" style="edgeStyle=orthogonalEdgeStyle;rounded=0;orthogonalLoop=1;jettySize=auto;html=1;entryX=0;entryY=0.5;entryDx=0;entryDy=0;" parent="1" source="o3WEUzkVEZmSLn_VWQB0-7" target="o3WEUzkVEZmSLn_VWQB0-9" edge="1">
          <mxGeometry relative="1" as="geometry" />
        </mxCell>
        <mxCell id="o3WEUzkVEZmSLn_VWQB0-7" value="Evonax Coin-swap" style="rounded=0;whiteSpace=wrap;html=1;" parent="1" vertex="1">
          <mxGeometry x="910" y="760" width="120" height="60" as="geometry" />
        </mxCell>
        <mxCell id="o3WEUzkVEZmSLn_VWQB0-8" style="edgeStyle=orthogonalEdgeStyle;rounded=0;orthogonalLoop=1;jettySize=auto;html=1;entryX=0;entryY=0.5;entryDx=0;entryDy=0;dashed=1;dashPattern=8 8;" parent="1" source="o3WEUzkVEZmSLn_VWQB0-9" target="o3WEUzkVEZmSLn_VWQB0-11" edge="1">
          <mxGeometry relative="1" as="geometry" />
        </mxCell>
        <mxCell id="o3WEUzkVEZmSLn_VWQB0-9" value="FTXdeposit" style="ellipse;whiteSpace=wrap;html=1;aspect=fixed;" parent="1" vertex="1">
          <mxGeometry x="1145" y="750" width="80" height="80" as="geometry" />
        </mxCell>
        <mxCell id="o3WEUzkVEZmSLn_VWQB0-10" style="edgeStyle=orthogonalEdgeStyle;rounded=0;orthogonalLoop=1;jettySize=auto;html=1;exitX=1;exitY=0.5;exitDx=0;exitDy=0;entryX=0;entryY=0.5;entryDx=0;entryDy=0;" parent="1" source="o3WEUzkVEZmSLn_VWQB0-11" target="o3WEUzkVEZmSLn_VWQB0-13" edge="1">
          <mxGeometry relative="1" as="geometry" />
        </mxCell>
        <mxCell id="o3WEUzkVEZmSLn_VWQB0-11" value="FTXhot" style="ellipse;whiteSpace=wrap;html=1;aspect=fixed;" parent="1" vertex="1">
          <mxGeometry x="1275" y="750" width="80" height="80" as="geometry" />
        </mxCell>
        <mxCell id="o3WEUzkVEZmSLn_VWQB0-12" style="edgeStyle=orthogonalEdgeStyle;rounded=0;orthogonalLoop=1;jettySize=auto;html=1;entryX=0.5;entryY=0;entryDx=0;entryDy=0;" parent="1" source="o3WEUzkVEZmSLn_VWQB0-13" target="o3WEUzkVEZmSLn_VWQB0-16" edge="1">
          <mxGeometry relative="1" as="geometry" />
        </mxCell>
        <mxCell id="o3WEUzkVEZmSLn_VWQB0-13" value="Evonax Coin-swap&lt;div&gt;ETH&lt;/div&gt;" style="rounded=0;whiteSpace=wrap;html=1;" parent="1" vertex="1">
          <mxGeometry x="1405" y="760" width="120" height="60" as="geometry" />
        </mxCell>
        <mxCell id="o3WEUzkVEZmSLn_VWQB0-14" style="edgeStyle=orthogonalEdgeStyle;rounded=0;orthogonalLoop=1;jettySize=auto;html=1;" parent="1" source="o3WEUzkVEZmSLn_VWQB0-16" target="o3WEUzkVEZmSLn_VWQB0-18" edge="1">
          <mxGeometry relative="1" as="geometry" />
        </mxCell>
        <mxCell id="o3WEUzkVEZmSLn_VWQB0-15" value="&lt;span style=&quot;color: rgb(0, 0, 0); font-family: Helvetica; font-size: 11px; font-style: normal; font-variant-ligatures: normal; font-variant-caps: normal; font-weight: 400; letter-spacing: normal; orphans: 2; text-align: center; text-indent: 0px; text-transform: none; widows: 2; word-spacing: 0px; -webkit-text-stroke-width: 0px; white-space: nowrap; background-color: rgb(255, 255, 255); text-decoration-thickness: initial; text-decoration-style: initial; text-decoration-color: initial; display: inline !important; float: none;&quot;&gt;5.58 ETH&lt;/span&gt;" style="edgeStyle=orthogonalEdgeStyle;rounded=0;orthogonalLoop=1;jettySize=auto;html=1;entryX=1;entryY=0.5;entryDx=0;entryDy=0;exitX=1;exitY=0.5;exitDx=0;exitDy=0;" parent="1" source="o3WEUzkVEZmSLn_VWQB0-16" target="o3WEUzkVEZmSLn_VWQB0-20" edge="1">
          <mxGeometry relative="1" as="geometry">
            <mxPoint x="1575" y="1059.9999999999998" as="targetPoint" />
          </mxGeometry>
        </mxCell>
        <mxCell id="o3WEUzkVEZmSLn_VWQB0-16" value="au2" style="ellipse;whiteSpace=wrap;html=1;aspect=fixed;" parent="1" vertex="1">
          <mxGeometry x="1425" y="860" width="80" height="80" as="geometry" />
        </mxCell>
        <mxCell id="o3WEUzkVEZmSLn_VWQB0-17" style="edgeStyle=orthogonalEdgeStyle;rounded=0;orthogonalLoop=1;jettySize=auto;html=1;entryX=0.5;entryY=1;entryDx=0;entryDy=0;" parent="1" source="o3WEUzkVEZmSLn_VWQB0-18" target="o3WEUzkVEZmSLn_VWQB0-16" edge="1">
          <mxGeometry relative="1" as="geometry">
            <mxPoint x="1298.9999999999998" y="999.9999999999998" as="targetPoint" />
            <Array as="points">
              <mxPoint x="1295" y="960" />
              <mxPoint x="1465" y="960" />
            </Array>
          </mxGeometry>
        </mxCell>
        <mxCell id="o3WEUzkVEZmSLn_VWQB0-18" value="Rug pull with token &quot;MADARA INU&quot;&amp;nbsp;" style="rounded=0;whiteSpace=wrap;html=1;" parent="1" vertex="1">
          <mxGeometry x="1239" y="870" width="120" height="60" as="geometry" />
        </mxCell>
        <mxCell id="o3WEUzkVEZmSLn_VWQB0-19" value="&lt;span style=&quot;color: rgb(0, 0, 0); font-family: Helvetica; font-size: 11px; font-style: normal; font-variant-ligatures: normal; font-variant-caps: normal; font-weight: 400; letter-spacing: normal; orphans: 2; text-align: center; text-indent: 0px; text-transform: none; widows: 2; word-spacing: 0px; -webkit-text-stroke-width: 0px; white-space: nowrap; background-color: rgb(255, 255, 255); text-decoration-thickness: initial; text-decoration-style: initial; text-decoration-color: initial; display: inline !important; float: none;&quot;&gt;5.58 ETH&lt;/span&gt;" style="edgeStyle=orthogonalEdgeStyle;rounded=0;orthogonalLoop=1;jettySize=auto;html=1;entryX=0.5;entryY=1;entryDx=0;entryDy=0;" parent="1" source="o3WEUzkVEZmSLn_VWQB0-20" target="o3WEUzkVEZmSLn_VWQB0-9" edge="1">
          <mxGeometry relative="1" as="geometry" />
        </mxCell>
        <mxCell id="o3WEUzkVEZmSLn_VWQB0-20" value="Evonax Coin-swap&lt;div&gt;ETH&lt;/div&gt;" style="rounded=0;whiteSpace=wrap;html=1;" parent="1" vertex="1">
          <mxGeometry x="1415" y="1010" width="120" height="60" as="geometry" />
        </mxCell>
        <mxCell id="o3WEUzkVEZmSLn_VWQB0-21" value="au1" style="ellipse;whiteSpace=wrap;html=1;aspect=fixed;" parent="1" vertex="1">
          <mxGeometry x="1251" y="630" width="80" height="80" as="geometry" />
        </mxCell>
        <mxCell id="GaLtBS_WFOr5p7Ct3-l7-9" value="2 ETH" style="edgeStyle=orthogonalEdgeStyle;rounded=0;orthogonalLoop=1;jettySize=auto;html=1;entryX=0;entryY=0.5;entryDx=0;entryDy=0;exitX=1;exitY=0.5;exitDx=0;exitDy=0;fontFamily=Computer Modern;fontSource=https%3A%2F%2Ffonts.googleapis.com%2Fcss%3Ffamily%3DComputer%2BModern;fontSize=17;" parent="1" source="KJkhIbnz85qWbtbBBVFo-6" target="GaLtBS_WFOr5p7Ct3-l7-13" edge="1">
          <mxGeometry relative="1" as="geometry">
            <mxPoint x="110" y="370" as="sourcePoint" />
          </mxGeometry>
        </mxCell>
        <mxCell id="GaLtBS_WFOr5p7Ct3-l7-11" value="5.58 ETH" style="edgeStyle=orthogonalEdgeStyle;rounded=0;orthogonalLoop=1;jettySize=auto;html=1;entryX=0;entryY=0.5;entryDx=0;entryDy=0;exitX=1;exitY=0.5;exitDx=0;exitDy=0;fontFamily=Computer Modern;fontSource=https%3A%2F%2Ffonts.googleapis.com%2Fcss%3Ffamily%3DComputer%2BModern;fontSize=17;" parent="1" source="KJkhIbnz85qWbtbBBVFo-7" edge="1" target="KJkhIbnz85qWbtbBBVFo-9">
          <mxGeometry relative="1" as="geometry">
            <mxPoint x="455" y="370" as="sourcePoint" />
            <mxPoint x="529" y="370" as="targetPoint" />
          </mxGeometry>
        </mxCell>
        <mxCell id="GaLtBS_WFOr5p7Ct3-l7-12" value="5.58 ETH" style="edgeStyle=orthogonalEdgeStyle;rounded=0;orthogonalLoop=1;jettySize=auto;html=1;entryX=0;entryY=0.5;entryDx=0;entryDy=0;fontFamily=Computer Modern;fontSource=https%3A%2F%2Ffonts.googleapis.com%2Fcss%3Ffamily%3DComputer%2BModern;fontSize=17;" parent="1" source="GaLtBS_WFOr5p7Ct3-l7-13" target="KJkhIbnz85qWbtbBBVFo-7" edge="1">
          <mxGeometry relative="1" as="geometry">
            <mxPoint x="375" y="370" as="targetPoint" />
          </mxGeometry>
        </mxCell>
        <mxCell id="GaLtBS_WFOr5p7Ct3-l7-13" value="Rug pull&lt;div&gt;&quot;MADARA INU&quot;&amp;nbsp;&lt;/div&gt;" style="rounded=0;whiteSpace=wrap;html=1;fontFamily=Computer Modern;fontSource=https%3A%2F%2Ffonts.googleapis.com%2Fcss%3Ffamily%3DComputer%2BModern;fontSize=16;" parent="1" vertex="1">
          <mxGeometry x="195" y="340" width="140" height="60" as="geometry" />
        </mxCell>
        <mxCell id="GaLtBS_WFOr5p7Ct3-l7-16" value="5.52 ETH" style="edgeStyle=orthogonalEdgeStyle;rounded=0;orthogonalLoop=1;jettySize=auto;html=1;entryX=0;entryY=0.5;entryDx=0;entryDy=0;fontFamily=Computer Modern;fontSource=https%3A%2F%2Ffonts.googleapis.com%2Fcss%3Ffamily%3DComputer%2BModern;fontSize=17;exitX=1;exitY=0.5;exitDx=0;exitDy=0;" parent="1" edge="1" target="KJkhIbnz85qWbtbBBVFo-8" source="KJkhIbnz85qWbtbBBVFo-9">
          <mxGeometry relative="1" as="geometry">
            <mxPoint x="705" y="370" as="targetPoint" />
            <mxPoint x="625" y="370" as="sourcePoint" />
          </mxGeometry>
        </mxCell>
        <mxCell id="GaLtBS_WFOr5p7Ct3-l7-18" value="&lt;div&gt;coin-swap&lt;/div&gt;" style="rounded=1;whiteSpace=wrap;html=1;fontFamily=Computer Modern;fontSource=https%3A%2F%2Ffonts.googleapis.com%2Fcss%3Ffamily%3DComputer%2BModern;fontSize=17;fillColor=#f9f7ed;strokeColor=#36393d;" parent="1" vertex="1">
          <mxGeometry x="586" y="110" width="96" height="60" as="geometry" />
        </mxCell>
        <mxCell id="KJkhIbnz85qWbtbBBVFo-1" value="&lt;p style=&quot;font-size: 21px;&quot;&gt;$$a_{u1}$$&lt;/p&gt;" style="ellipse;whiteSpace=wrap;html=1;aspect=fixed;strokeWidth=2;fontSize=21;" parent="1" vertex="1">
          <mxGeometry x="40" y="110" width="60" height="60" as="geometry" />
        </mxCell>
        <mxCell id="KJkhIbnz85qWbtbBBVFo-2" value="&lt;p style=&quot;font-size: 20px;&quot;&gt;$$a_{u1}$$&lt;/p&gt;" style="ellipse;whiteSpace=wrap;html=1;aspect=fixed;strokeWidth=2;fontSize=20;" parent="1" vertex="1">
          <mxGeometry x="431" y="110" width="60" height="60" as="geometry" />
        </mxCell>
        <mxCell id="KJkhIbnz85qWbtbBBVFo-3" value="&lt;p style=&quot;font-size: 14px;&quot;&gt;&lt;font style=&quot;font-size: 14px;&quot;&gt;$$FTX_{hot}$$&lt;/font&gt;&lt;/p&gt;" style="ellipse;whiteSpace=wrap;html=1;aspect=fixed;strokeWidth=2;fontSize=14;" parent="1" vertex="1">
          <mxGeometry x="40" y="220" width="60" height="60" as="geometry" />
        </mxCell>
        <mxCell id="KJkhIbnz85qWbtbBBVFo-4" value="&lt;p style=&quot;font-size: 14px;&quot;&gt;&lt;font style=&quot;font-size: 14px;&quot;&gt;$$FTX_{dep}$$&lt;/font&gt;&lt;/p&gt;" style="ellipse;whiteSpace=wrap;html=1;aspect=fixed;strokeWidth=2;fontSize=14;" parent="1" vertex="1">
          <mxGeometry x="789" y="110" width="60" height="60" as="geometry" />
        </mxCell>
        <mxCell id="KJkhIbnz85qWbtbBBVFo-5" value="&lt;p style=&quot;font-size: 20px;&quot;&gt;$$a_{u2}$$&lt;/p&gt;" style="ellipse;whiteSpace=wrap;html=1;aspect=fixed;strokeWidth=2;fontSize=20;" parent="1" vertex="1">
          <mxGeometry x="431" y="220" width="60" height="60" as="geometry" />
        </mxCell>
        <mxCell id="KJkhIbnz85qWbtbBBVFo-6" value="&lt;p style=&quot;font-size: 20px;&quot;&gt;$$a_{u2}$$&lt;/p&gt;" style="ellipse;whiteSpace=wrap;html=1;aspect=fixed;strokeWidth=2;fontSize=20;" parent="1" vertex="1">
          <mxGeometry x="40" y="340" width="60" height="60" as="geometry" />
        </mxCell>
        <mxCell id="KJkhIbnz85qWbtbBBVFo-7" value="&lt;p style=&quot;font-size: 20px;&quot;&gt;$$a_{u2}$$&lt;/p&gt;" style="ellipse;whiteSpace=wrap;html=1;aspect=fixed;strokeWidth=2;fontSize=20;" parent="1" vertex="1">
          <mxGeometry x="430" y="340" width="60" height="60" as="geometry" />
        </mxCell>
        <mxCell id="KJkhIbnz85qWbtbBBVFo-8" value="&lt;p style=&quot;font-size: 14px;&quot;&gt;&lt;font style=&quot;font-size: 14px;&quot;&gt;$$FTX_{dep}$$&lt;/font&gt;&lt;/p&gt;" style="ellipse;whiteSpace=wrap;html=1;aspect=fixed;strokeWidth=2;fontSize=14;" parent="1" vertex="1">
          <mxGeometry x="779" y="340" width="60" height="60" as="geometry" />
        </mxCell>
        <mxCell id="KJkhIbnz85qWbtbBBVFo-9" value="&lt;div&gt;coin-swap&lt;/div&gt;" style="rounded=1;whiteSpace=wrap;html=1;fontFamily=Computer Modern;fontSource=https%3A%2F%2Ffonts.googleapis.com%2Fcss%3Ffamily%3DComputer%2BModern;fontSize=17;fillColor=#f9f7ed;strokeColor=#36393d;" parent="1" vertex="1">
          <mxGeometry x="586" y="340" width="96" height="60" as="geometry" />
        </mxCell>
        <mxCell id="KJkhIbnz85qWbtbBBVFo-10" value="&lt;div&gt;coin-swap&lt;/div&gt;" style="rounded=1;whiteSpace=wrap;html=1;fontFamily=Computer Modern;fontSource=https%3A%2F%2Ffonts.googleapis.com%2Fcss%3Ffamily%3DComputer%2BModern;fontSize=17;fillColor=#f9f7ed;strokeColor=#36393d;" parent="1" vertex="1">
          <mxGeometry x="217" y="220" width="96" height="60" as="geometry" />
        </mxCell>
      </root>
    </mxGraphModel>
  </diagram>
</mxfile>
